HIERARCHY
ROOT hip
{
  OFFSET 0 0 0
  CHANNELS 6 Xposition Yposition Zposition Zrotation Yrotation Xrotation
  JOINT abdomen
  {
    OFFSET 0 20.6881 -0.73152
    CHANNELS 3 Zrotation Xrotation Yrotation
    JOINT chest
    {
      OFFSET 0 11.7043 -0.48768
      CHANNELS 3 Zrotation Xrotation Yrotation
      JOINT neck
      {
        OFFSET 0 22.1894 -2.19456
        CHANNELS 3 Zrotation Xrotation Yrotation
        JOINT head
        {
          OFFSET -0.24384 7.07133 1.2192
          CHANNELS 3 Zrotation Xrotation Yrotation
          JOINT leftEye
          {
            OFFSET 4.14528 8.04674 8.04672
            CHANNELS 3 Zrotation Xrotation Yrotation
            End Site
            {
              OFFSET 1 0 0
            }
          }
          JOINT rightEye
          {
            OFFSET -3.6576 8.04674 8.04672
            CHANNELS 3 Zrotation Xrotation Yrotation
            End Site
            {
              OFFSET 1 0 0
            }
          }
        }
      }
      JOINT rCollar
      {
        OFFSET -2.68224 19.2634 -4.8768
        CHANNELS 3 Zrotation Xrotation Yrotation
        JOINT rShldr
        {
          OFFSET -8.77824 -1.95073 1.46304
          CHANNELS 3 Zrotation Xrotation Yrotation
          JOINT rForeArm
          {
            OFFSET -28.1742 -1.7115 0.48768
            CHANNELS 3 Zrotation Xrotation Yrotation
            JOINT rHand
            {
              OFFSET -22.5879 0.773209 7.07136
              CHANNELS 3 Zrotation Xrotation Yrotation
              JOINT rThumb1
              {
                OFFSET -1.2192 -0.487915 3.41376
                CHANNELS 3 Zrotation Xrotation Yrotation
                JOINT rThumb2
                {
                  OFFSET -3.37035 -0.52449 3.41376
                  CHANNELS 3 Zrotation Xrotation Yrotation
                  End Site
                  {
                    OFFSET -1.78271 -1.18214 1.43049
                  }
                }
              }
              JOINT rIndex1
              {
                OFFSET -7.75947 0.938293 5.60832
                CHANNELS 3 Zrotation Xrotation Yrotation
                JOINT rIndex2
                {
                  OFFSET -2.54057 -0.884171 1.56538
                  CHANNELS 3 Zrotation Xrotation Yrotation
                  End Site
                  {
                    OFFSET -1.62519 -0.234802 1.16502
                  }
                }
              }
              JOINT rMid1
              {
                OFFSET -8.24714 1.18213 3.41376
                CHANNELS 3 Zrotation Xrotation Yrotation
                JOINT rMid2
                {
                  OFFSET -3.10165 -0.590103 1.0647
                  CHANNELS 3 Zrotation Xrotation Yrotation
                  End Site
                  {
                    OFFSET -2.48547 -0.328903 0.83742
                  }
                }
              }
              JOINT rRing1
              {
                OFFSET -8.82822 0.546677 1.51678
                CHANNELS 3 Zrotation Xrotation Yrotation
                JOINT rRing2
                {
                  OFFSET -2.60934 -0.819778 -0.0198488
                  CHANNELS 3 Zrotation Xrotation Yrotation
                  End Site
                  {
                    OFFSET -2.33842 -0.294052 0.168128
                  }
                }
              }
              JOINT rPinky1
              {
                OFFSET -8.27202 -0.0477905 -0.4584
                CHANNELS 3 Zrotation Xrotation Yrotation
                JOINT rPinky2
                {
                  OFFSET -1.82734 -0.647385 -0.700984
                  CHANNELS 3 Zrotation Xrotation Yrotation
                  End Site
                  {
                    OFFSET -1.69225 -0.51767 -0.607171
                  }
                }
              }
            }
          }
        }
      }
      JOINT lCollar
      {
        OFFSET 2.68224 19.2634 -4.8768
        CHANNELS 3 Zrotation Xrotation Yrotation
        JOINT lShldr
        {
          OFFSET 8.77824 -1.95073 1.46304
          CHANNELS 3 Zrotation Xrotation Yrotation
          JOINT lForeArm
          {
            OFFSET 28.1742 -1.7115 0.48768
            CHANNELS 3 Zrotation Xrotation Yrotation
            JOINT lHand
            {
              OFFSET 22.5879 0.773209 7.07136
              CHANNELS 3 Zrotation Xrotation Yrotation
              JOINT lThumb1
              {
                OFFSET 1.2192 -0.487915 3.41376
                CHANNELS 3 Zrotation Xrotation Yrotation
                JOINT lThumb2
                {
                  OFFSET 3.37035 -0.52449 3.41376
                  CHANNELS 3 Zrotation Xrotation Yrotation
                  End Site
                  {
                    OFFSET 1.78271 -1.18214 1.43049
                  }
                }
              }
              JOINT lIndex1
              {
                OFFSET 7.75947 0.938293 5.60832
                CHANNELS 3 Zrotation Xrotation Yrotation
                JOINT lIndex2
                {
                  OFFSET 2.54057 -0.884171 1.56538
                  CHANNELS 3 Zrotation Xrotation Yrotation
                  End Site
                  {
                    OFFSET 1.62519 -0.234802 1.16502
                  }
                }
              }
              JOINT lMid1
              {
                OFFSET 8.24714 1.18213 3.41376
                CHANNELS 3 Zrotation Xrotation Yrotation
                JOINT lMid2
                {
                  OFFSET 3.10165 -0.590103 1.0647
                  CHANNELS 3 Zrotation Xrotation Yrotation
                  End Site
                  {
                    OFFSET 2.48547 -0.328903 0.83742
                  }
                }
              }
              JOINT lRing1
              {
                OFFSET 8.82822 0.546677 1.51678
                CHANNELS 3 Zrotation Xrotation Yrotation
                JOINT lRing2
                {
                  OFFSET 2.60934 -0.819778 -0.0198488
                  CHANNELS 3 Zrotation Xrotation Yrotation
                  End Site
                  {
                    OFFSET 2.33842 -0.294052 0.168128
                  }
                }
              }
              JOINT lPinky1
              {
                OFFSET 8.27202 -0.0477905 -0.4584
                CHANNELS 3 Zrotation Xrotation Yrotation
                JOINT lPinky2
                {
                  OFFSET 1.82734 -0.647385 -0.700984
                  CHANNELS 3 Zrotation Xrotation Yrotation
                  End Site
                  {
                    OFFSET 1.69225 -0.51767 -0.607171
                  }
                }
              }
            }
          }
        }
      }
    }
  }
  JOINT rButtock
  {
    OFFSET -8.77824 4.35084 1.2192
    CHANNELS 3 Zrotation Xrotation Yrotation
    JOINT rThigh
    {
      OFFSET 0 -1.70687 -2.19456
      CHANNELS 3 Zrotation Xrotation Yrotation
      JOINT rShin
      {
        OFFSET 0 -36.8199 0.73152
        CHANNELS 3 Zrotation Xrotation Yrotation
        JOINT rFoot
        {
          OFFSET 0.73152 -45.1104 -5.12064
          CHANNELS 3 Zrotation Xrotation Yrotation
          End Site
          {
            OFFSET -1.1221 -3.69964 12.103
          }
        }
      }
    }
  }
  JOINT lButtock
  {
    OFFSET 8.77824 4.35084 1.2192
    CHANNELS 3 Zrotation Xrotation Yrotation
    JOINT lThigh
    {
      OFFSET 0 -1.70687 -2.19456
      CHANNELS 3 Zrotation Xrotation Yrotation
      JOINT lShin
      {
        OFFSET 0 -36.8199 0.73152
        CHANNELS 3 Zrotation Xrotation Yrotation
        JOINT lFoot
        {
          OFFSET -0.73152 -45.1104 -5.12064
          CHANNELS 3 Zrotation Xrotation Yrotation
          End Site
          {
            OFFSET 1.1221 -3.69964 12.103
          }
        }
      }
    }
  }
}
MOTION
Frames:	5
Frame Time:	0.00833333
-11.00769 85.1771 -19.543793 0.014605192 68.89401 6.787987 -5.1537833 -2.5247684 12.141421 -1.5693384 -6.827419 3.5811644 -4.6225386 17.362692 -0.3305348 24.77781 -8.7624445 2.6857188 -0.0 0.0 -0.0 -0.0 0.0 -0.0 -0.0 -0.0 -0.0 25.09721 -28.56079 66.4879 -28.251404 -32.319393 70.881996 -2.3390975 -38.987297 -6.5421453 -0.0 0.0 0.0 -0.0 0.0 0.0 -0.0 0.0 0.0 7.7309012 5.4749126 0.41732216 -0.0 0.0 0.0 2.9055667 0.9650755 0.103008196 -0.0 0.0 0.0 10.278597 0.731881 0.026273511 -0.0 0.0 0.0 2.2216635 -0.73345095 -0.208321 -0.0 -0.0 -0.0 -100.658005 59.568596 34.831604 24.286798 -49.013706 -102.36301 0.17144078 11.718202 -1.6705437 -0.0 -0.0 -0.0 -0.0 -0.0 -0.0 -0.0 -0.0 -0.0 -7.7309012 5.4749126 -0.41732216 -0.0 -0.0 -0.0 -2.9055667 0.9650755 -0.103008196 -0.0 -0.0 -0.0 -10.278597 0.731881 -0.026273511 -0.0 -0.0 -0.0 -2.2216635 -0.73345095 0.208321 -0.0 0.0 -0.0 -12.626605 -31.111206 -11.888204 -0.32328942 39.687103 0.49843073 -1.464152 -2.933417 -9.94916 0.0 0.0 0.0 -2.9330711 -22.205702 -1.4681731 0.4494081 44.3534 -0.77943826 1.4101164 -3.1716301 6.843053
-15.506256 84.2547 -21.336391 0.68938816 37.58201 6.834015 -7.764987 -4.50406 13.279405 -2.719011 -6.5354075 3.8809679 -4.5658245 17.122515 4.2437077 25.575401 -4.504305 10.466922 -0.0 0.0 -0.0 -0.0 0.0 -0.0 -0.0 0.0 0.0 21.956167 -33.220284 67.30178 -28.41739 -34.888912 75.1909 -2.0408034 -37.16484 -6.109098 -0.0 0.0 -0.0 -0.0 0.0 -0.0 -0.0 0.0 -0.0 7.7309012 5.4749126 0.41732216 -0.0 0.0 -0.0 2.9055667 0.9650755 0.103008196 -0.0 0.0 -0.0 10.278597 0.731881 0.026273511 -0.0 0.0 -0.0 2.2216635 -0.73345095 -0.208321 -0.0 0.0 0.0 -97.86348 62.161297 30.598997 24.764599 -48.35839 -100.77099 0.21097419 12.97359 -1.8553382 -0.0 0.0 -0.0 -0.0 0.0 -0.0 -0.0 0.0 -0.0 -7.7309012 5.4749126 -0.41732216 -0.0 0.0 -0.0 -2.9055667 0.9650755 -0.103008196 -0.0 0.0 -0.0 -10.278597 0.731881 -0.026273511 -0.0 0.0 -0.0 -2.2216635 -0.73345095 0.208321 -0.0 0.0 -0.0 -14.472691 -29.913813 -19.440098 -0.39135697 43.3191 0.7018379 -3.4576807 -5.605077 -16.910986 0.0 0.0 0.0 1.4947294 -24.64 20.518318 0.5208907 47.29069 -0.9128545 2.4285536 -4.928157 10.69891
-21.12415 83.3615 -22.961193 3.6570969 6.7690067 7.5650105 -10.660493 -7.444912 11.094995 -4.2376146 -6.7144814 3.204867 -5.3619666 15.9515915 7.7039185 24.963902 -1.5819604 16.1134 -0.0 0.0 -0.0 -0.0 0.0 -0.0 -0.0 0.0 -0.0 18.184198 -38.209496 65.0878 -28.372396 -37.51341 79.5602 -1.9469795 -36.320107 -5.930984 -0.0 0.0 0.0 -0.0 0.0 0.0 -0.0 0.0 0.0 7.7309012 5.4749126 0.41732216 -0.0 0.0 0.0 2.9055667 0.9650755 0.103008196 -0.0 0.0 0.0 10.278597 0.731881 0.026273511 -0.0 0.0 0.0 2.2216635 -0.73345095 -0.208321 -0.0 0.0 -0.0 -97.55639 63.2343 28.492195 25.285105 -47.5358 -98.91349 0.22818263 13.479786 -1.930643 -0.0 0.0 -0.0 -0.0 0.0 -0.0 -0.0 0.0 -0.0 -7.7309012 5.4749126 -0.41732216 -0.0 0.0 -0.0 -2.9055667 0.9650755 -0.103008196 -0.0 0.0 -0.0 -10.278597 0.731881 -0.026273511 -0.0 0.0 -0.0 -2.2216635 -0.73345095 0.208321 -0.0 0.0 -0.0 -18.698093 -30.7307 -25.079494 -0.49136063 48.633022 1.0873815 -7.3822765 -9.441132 -26.351202 0.0 0.0 0.0 5.5171824 -26.2198 34.55219 0.596954 50.15098 -1.0804843 4.1692085 -5.513922 17.9355
-28.124548 84.6247 -25.400991 3.1048996 -22.655993 5.7649736 -10.8080015 -9.82008 7.037801 -5.0810175 -7.5065084 1.9518558 -5.530964 15.3555 8.260782 23.243406 -2.213643 16.6605 -0.0 0.0 -0.0 -0.0 0.0 -0.0 -0.0 -0.0 -0.0 21.352 -39.549496 62.783295 -27.9642 -40.76319 85.17548 -2.460056 -40.06362 -6.7813177 -0.0 0.0 -0.0 -0.0 0.0 -0.0 -0.0 0.0 -0.0 7.7309012 5.4749126 0.41732216 -0.0 0.0 -0.0 2.9055667 0.9650755 0.103008196 -0.0 0.0 -0.0 10.278597 0.731881 0.026273511 -0.0 0.0 -0.0 2.2216635 -0.73345095 -0.208321 -0.0 -0.0 -0.0 -101.49502 63.78432 31.105814 25.573198 -47.056103 -97.831894 0.20485792 12.786911 -1.8280817 -0.0 -0.0 -0.0 -0.0 -0.0 -0.0 -0.0 -0.0 -0.0 -7.7309012 5.4749126 -0.41732216 -0.0 -0.0 -0.0 -2.9055667 0.9650755 -0.103008196 -0.0 -0.0 -0.0 -10.278597 0.731881 -0.026273511 -0.0 -0.0 -0.0 -2.2216635 -0.73345095 0.208321 -0.0 0.0 -0.0 -16.243885 -30.352205 -26.97079 -0.49643585 48.118717 1.1118834 -8.69964 -11.981098 -26.625593 0.0 0.0 0.0 7.804883 -25.202648 35.604267 0.58744323 50.139294 -1.094027 5.426558 -3.146177 28.615694
-32.823456 85.643 -28.90299 -0.49058008 -51.584976 6.6389775 -8.714765 -13.110489 2.2089674 -4.5116153 -7.4570746 0.5426455 -5.910829 14.148005 5.593696 23.291903 -3.3240192 11.270889 -0.0 0.0 -0.0 -0.0 0.0 -0.0 -0.0 0.0 -0.0 35.482796 -35.639996 64.2788 -27.413502 -42.729088 89.04359 -3.520089 -45.720436 -8.30134 -0.0 0.0 -0.0 -0.0 0.0 -0.0 -0.0 0.0 -0.0 7.7309012 5.4749126 0.41732216 -0.0 0.0 -0.0 2.9055667 0.9650755 0.103008196 -0.0 0.0 -0.0 10.278597 0.731881 0.026273511 -0.0 0.0 -0.0 2.2216635 -0.73345095 -0.208321 -0.0 0.0 -0.0 -105.765 61.948486 35.282303 25.725992 -46.7816 -97.23479 0.27439904 14.747968 -2.1200552 -0.0 0.0 0.0 -0.0 0.0 0.0 -0.0 0.0 0.0 -7.7309012 5.4749126 -0.41732216 -0.0 0.0 0.0 -2.9055667 0.9650755 -0.103008196 -0.0 0.0 0.0 -10.278597 0.731881 -0.026273511 -0.0 0.0 0.0 -2.2216635 -0.73345095 0.208321 -0.0 0.0 -0.0 -7.7601814 -29.463324 -25.870272 -0.40172234 43.6361 0.68408734 -4.0717006 -9.495792 -14.189395 0.0 0.0 0.0 11.742403 -22.95809 30.2178 0.7452589 52.542408 -0.96332407 0.6857518 5.517927 29.875605
